<?xml version="1.0" encoding="utf-8"?>
<!-- Generator: Adobe Illustrator 23.0.6, SVG Export Plug-In . SVG Version: 6.00 Build 0)  -->
<svg version="1.1" id="Lager_1" xmlns="http://www.w3.org/2000/svg" xmlns:xlink="http://www.w3.org/1999/xlink" x="0px" y="0px"
	 viewBox="0 0 375 275" style="enable-background:new 0 0 375 275;" xml:space="preserve">
<style type="text/css">
	.st0{fill:#FFFFFF;}
</style>
<path class="st0" d="M369.8,89.1l-0.2-1.5c-0.1-0.9-0.2-1.7-0.3-2.6c-0.3-3.6-0.6-8-6-10.5l-1-0.5c-4-1.9-8.1-3.8-12.7-4.1l-0.3,0
	c-3.5-0.7-7.3-1.2-11.1-1.4c-16.4-0.9-33.1,2.8-47.5,6.4c-4.6,1.1-9.2,2.2-13.9,3.2c-14.3,3.2-29.1,6.5-42.8,12.7
	c-4.6,2.1-9.6,4.1-14.8,4.1c-4,0-6.8,2.3-9.2,4.3c-1.1,1-2.2,1.9-3.4,2.6c-9.5,5.7-17.8,9.7-21.1,10.3c-0.2-5.2,0.5-10.6,1.2-15.8
	c0.7-5.1,1.4-10.4,1.2-15.7c-0.1-2.5,0.4-5.2,0.9-7.9c0.6-3.5,1.2-7.1,0.8-10.8c0.9-6.5,1-12.7,0.1-18.4c-0.3-2,0.1-4,0.5-6.2
	c0.4-2.2,0.8-4.4,0.7-6.8c0-0.6,0.1-2.2,0.2-3.8c0.6-7,0.9-12.9-1.6-15.8c-0.4-0.5-0.9-1.6-1.4-1.9L186.7,8c-0.2,0-0.5,0-0.7,0
	l-0.7,0l0,0c0,0,0,0,0,0l-1.8,1.2c-2.5,3.8-3,5.5-4.1,10.2c-1.4,6-1.8,12.5-2.1,18.4c-0.2,3.7-0.5,7.7-0.9,11.4l-0.1,0.4l0.1,0.4
	c1.3,8.1,0,17.7-1.2,27c-0.5,3.5-0.9,6.9-1.2,10.1c-0.2,1.7-0.4,3.4-0.6,5.1c-0.6,4.9-1.2,10-0.8,15.3c-0.2,1-0.2,2-0.3,3.1
	c-0.3,2.9-0.5,5.7-2.2,7.5c-3.6,3.8-14.3,11.2-19.6,11.3c-0.2-3.8,0.1-7.6,0.5-11.7c0.3-2.9,0.5-5.7,0.6-8.5c0-0.5,0.2-1.4,0.4-2.4
	c0.9-4.6,1.5-8.4-0.2-10.7c-0.7-1-1.8-1.5-3.1-1.6l-1.7,0.1l-0.7,0.8c-8,9.8-7.7,24.5-7.3,30.4c0.8,10-6.4,14.6-19.2,19.2
	c-4.8,1.7-11.8,5.2-16.1,8.6c-1.4,1.1-3.2,2-5.2,2.9c-3.1,1.4-6.6,3.1-8.8,6.1c-3.2,2.2-6.9,4.4-10.4,6.5c-1.6,1-3.2,1.9-4.7,2.8
	c-1,0.6-2.2,1.1-3.4,1.6c-1.6,0.6-3.2,1.2-4.7,2.3c-1.2,0.8-2,1.6-2.7,2.4c-0.8,0.8-1.4,1.5-2.6,2c-2.3,1-4.1,2.3-5.9,3.5
	c-2.3,1.6-4.5,3.1-7.2,3.7c-3.2,0.6-5.7,2.6-7.8,4.4c-2.1,1.7-3.8,3.1-5.9,3.4c-0.8,0.1-1.6,0.2-2.3,0.3c-4,0.5-6.6,0.6-9.1-1.7
	c-1.8-1.7-5.9-5.9-5.2-10c2.5-13.2,5.9-23.3,10.2-30.1c1.1-1.7,1.8-3.5,2.4-5.2c0.6-1.5,1.1-2.9,1.8-4.1c0.3-0.5,0.7-0.8,1.2-1.3
	c0.9-0.8,2-1.8,2.7-3.6c1.1-2.9,3.9-5.9,6.6-8.8c1.4-1.5,2.8-2.9,3.9-4.4c3.6-1.8,6.3-5.6,8.7-8.9c0.7-0.9,1.3-1.8,1.6-2.3l2.4-2.1
	c3.7-3.3,7.5-6.7,11.5-9.6C81.8,94.9,94,90,103,90.1l0.7,0c4.3,0.2,6.5,2.2,9.4,6.1c1.6,2.1,2.2,4.1,2.8,6.3
	c0.4,1.4,0.8,2.8,1.5,4.4l0.8,1.7l1.9-0.3c2.7-0.4,4.6-1.8,5.5-4.1c2.7-6.8-4.7-18.7-5.9-20.2c-2-2.5-6.1-6.7-12-7
	c-0.8,0-1.7,0-3,0.1c-0.6,0-1.1-0.2-1.7-0.3c-1.6-0.4-3.1-0.6-4.4-0.2c-1.4,0.4-2.6,1-3.6,1.5c-1.2,0.6-2.2,1.1-3.5,1.2
	c-4,0.3-7.1,2.5-9.8,4.4c-1.2,0.9-2.4,1.7-3.7,2.4c-4.1,0.9-10.3,4.6-13.2,7.8c-1.2,1.4-2.7,2.3-4.2,3.2c-1.7,1-3.4,2.1-4.9,3.8
	c-2.7,3.1-5.8,5.7-9.1,8.5c-4.1,3.5-8.3,7.1-11.4,11.2c-3.4,3-9.8,9.2-13.9,17c-1.1,2.1-2.3,4.3-3.4,6.4
	C10.5,157.7,2.7,172,4.5,188.6c0.2,1.8,1.5,3.9,3.5,6.9c0.5,0.7,1.1,1.7,1.4,2.2c-0.6,3.9,3.5,5.2,5.1,5.7c0.4,0.1,1.1,0.3,1.2,0.4
	c3.5,2.8,8.1,4,12.1,4.8c3,0.6,5.8-0.6,8.3-1.6c1.4-0.6,2.7-1.1,3.9-1.3c2.6-0.3,4.6-1.4,6.4-2.3c1.6-0.8,3.1-1.6,5.1-1.9
	c2.6-0.4,4.9-2.1,7.2-3.7c1.2-0.9,2.4-1.7,3.8-2.4c5-3.6,9.4-6.6,14.7-9.4c1.6-0.8,2.9-2,4.2-3.1c1.2-1,2.3-2,3.2-2.4
	c1-0.4,2.2-0.7,3.3-1c2.9-0.8,6.2-1.7,8.6-4.3c1-1.1,4.6-3.4,7-4.6c3.6-1.8,7.1-3.8,10.4-5.8c4.6-2.7,8.9-5.3,13.6-7.2
	c0.8-0.3,2.2-1.1,3.9-1.9c2.1-1.2,6.6-3.6,7.4-3.7c0.6,0.3,0.7,2.9,0.7,4c0.1,1.3,0.1,2.6,0.4,3.7c0.4,1.3,0.7,2.6,1,3.9
	c1.3,5.7,2.9,13,12.6,12.2l2.1-0.2l0.2-2.1c0.2-3-1-5.7-2-8c-0.7-1.6-1.4-3.1-1.6-4.5c-0.3-2-0.8-3.9-1.3-5.7
	c-0.6-2.4-1.2-4.6-1.3-6.8c0-1.2,0.2-1.5,2-2.4c1-0.5,2.2-1.2,3.2-2.2c2.5-0.7,4.5-1.9,6.4-3c1.5-0.9,3-1.8,4.7-2.4
	c1.5-0.5,2.6-0.9,3.3-1c0.1,0.9,0,2.4,0,3.7l0,1.6c-0.1,5.2-0.3,10.6-1.2,15.7l-0.1,0.3l0,0.3c0.7,9.3,0.5,19.2-0.6,27.1l0,0.3
	l0,0.3c0.2,2.4,0.1,4.8,0.1,7.3c0,2.3-0.1,4.6,0,6.9c0.1,2,0.5,3.8,0.8,5.7c0.4,2.5,0.9,4.8,0.7,7.1c-0.4,4.9,0.6,9.5,1.5,14
	c0.8,3.8,1.5,7.4,1.5,11.2c0,2.8,0.5,5.6,1,8.3c0.3,1.9,0.7,3.8,0.8,5.7l0.1,1l0.8,0.7c1.4,1.2,2.1,2.6,2.9,4.3
	c0.8,1.6,1.7,3.4,3.3,5c1.4,1.4,3,2.1,4.9,2.2c4.2,0.2,7.9-3,9.2-6.1c1.1-2.6,0.6-5.3-1.3-7l-0.7-0.6l-2.2,0.1l-0.8,0.8
	c-1.5,1.5-2.2,1.7-2.2,1.7c-2-1.6-2.5-2.6-2.7-5c-0.2-2.2-0.5-4.5-0.8-6.8c-0.5-3.7-1-7.2-0.9-10.6c0.1-4.6-0.5-9.1-1.1-13.4
	c-0.4-2.8-0.8-5.6-1-8.5c-0.1-2-0.1-4.1-0.1-6.3c0.1-4.2,0.1-8.5-1-12.4c-1.1-3.7,0.1-10.1,0.9-14.9c0.2-1.2,0.4-2.4,0.6-3.4
	c0.5-3.2,0.4-6.5,0.4-9.8c-0.1-3.1-0.1-6.1,0.3-8.9c0.4-2.7,0.1-5.9-0.3-9.3c-0.6-6.1-1.2-12.4,2.1-15.6c1.4-1.3,11.3-6.7,15.9-7.9
	c-3.2,10.3-2.7,20.8-1.6,30.6c0,0.2,2.6,15.3,9.2,15.7c0.6,0,1.2-0.1,1.8-0.3c4.6-1.7,3-7.7,2-11.2c-0.2-0.8-0.4-1.5-0.5-2
	c-0.4-2.8-0.4-5.4-0.4-8.1c0-2-0.1-4-0.2-6.1c0.2-0.8,0.3-1.7,0.5-2.6c0.5-2.6,1.1-6.2,2.2-7.7c1.4-2,1.2-3.9,1.1-5.4
	c-0.1-1.1-0.1-1.8,0.2-2.4c0.9-1.8,1.9-3.5,2.9-5.2c0.3-0.4,0.6-1,0.9-1.5c1-1.7,2.4-4.3,3.7-4.8c1.1-0.4,2.5-0.7,3.9-0.9
	c1.8-0.3,3.6-0.7,5.2-1.4c1.5-0.7,2.2-2,2.7-2.9c0.1-0.1,0.1-0.2,0.2-0.3c0.5,0.3,1.1,0.6,1.8,0.6c1.5,0.1,2.8-0.8,3.7-1.5
	c3.5-2.9,13.2-4.1,16.8-4.5l0.7-0.2c1.6-0.7,2.9-1.4,4.2-2.1c2.2-1.2,4.1-2.2,6.7-2.6c6.6-1,13.9-2.9,21-5.5
	c2.1-0.3,4.2-0.7,6.1-1.2c3.3-0.7,6.3-1.5,9.2-1l0.5,0.1l3.6-0.8c3.5-0.8,6.9-1.6,10.4-2.5c1.7-0.5,4-0.4,6.1-0.2
	c1.3,0.1,2.5,0.1,3.6,0.1c1.7-0.1,3.3-0.5,4.9-0.8c1.6-0.4,3.1-0.8,4.4-0.7c0.2,0,0.3,0,0.2,0c2.4,0.8,4.6,1.1,6.8,1.4
	c3.1,0.4,5.7,0.8,8.2,2.5c0.8,0.6,1.2,1.2,1.3,2c0.2,1.7-1.1,4.4-3.1,6.5c-1.6,1.7-3.2,3.2-4.9,4.7c-2.1,2-4.3,4-6.4,6.4
	c-1.7,1.3-3.6,2.2-5.6,3.3c-3.1,1.6-6.3,3.2-8.8,6.1c-1.3,1.5-3,2.3-5.1,3.2c-0.8,0.3-1.5,0.7-2.3,1.1c-1.4,0.7-2.4,1.7-3.2,2.6
	c-0.6,0.6-1.1,1.2-1.6,1.5c-3.3,0.8-5.6,2.2-7.8,3.6c-1.4,0.9-2.6,1.7-4.2,2.4c-3.6,1.6-8.3,3.6-12.5,4.3l-0.6,0.2
	c-0.9,0.4-1.8,0.7-2.6,1c-2.9,1-5.8,2.1-8.4,5.1l-1.6,1.9l1.9,1.6c3.8,3.3,12.1,2.6,26.4-1.7c1.7-0.5,2.8-1.1,3.5-1.5
	c1-0.6,1.5-0.8,3.6-0.8l1-0.2c1-0.4,1.7-1.2,2.2-1.8c0-0.1,0.1-0.1,0.1-0.2c2.4,0.9,5.1-1,7.3-2.9c0.7-0.6,1.6-1.4,2-1.5
	c1.8-0.5,3-8.2,3.7-8.8c0.2-0.2,0.7-7.1,0.8-7.1l1.1,0.1c1.2,0.1,3.8,6.9,5.5,3.6c0.5-0.9,1,2.2,2.7,1.6c1.6-0.5,3.5,0.6,5.1-1.2
	c0.9-1.1,1.8-0.8,2.9-1.6c1.6-1.1,3.4-1.8,5-4.4c0.6-0.9,4.7-5.6,5.5-6.1c3.9-1.3,5.6-3.9,7-6c0.9-1.3,1.6-2.4,2.8-3.2
	C371.1,96.9,370.4,93,369.8,89.1z"/>
</svg>
